<svg width="32" height="32" viewBox="0 0 32 32" fill="none" xmlns="http://www.w3.org/2000/svg">
<circle cx="16" cy="16" r="16" fill="white"/>
<path d="M18.6667 11.3333V16.6667C18.6667 17.4 18.0667 18 17.3333 18H13.3333C12.6 18 12 17.4 12 16.6667V11.3333H18.6667ZM21.3333 10H10.6667V16.6667C10.6667 18.14 11.86 19.3333 13.3333 19.3333H17.3333C18.8067 19.3333 20 18.14 20 16.6667V14.6667H21.3333C22.0733 14.6667 22.6667 14.0733 22.6667 13.3333V11.3333C22.6667 10.5933 22.0733 10 21.3333 10ZM20 13.3333V11.3333H21.3333V13.3333H20ZM21.3333 20.6667H9.33333V22H21.3333V20.6667Z" fill="#9747FF"/>
<circle cx="16" cy="16" r="14" stroke="#9747FF" stroke-width="2"/>
</svg>
