<svg width="20" height="20" viewBox="0 0 20 20" fill="none" xmlns="http://www.w3.org/2000/svg">
<path d="M12.67 19H12.61C12.3899 18.9867 12.1804 18.9011 12.014 18.7564C11.8476 18.6117 11.7337 18.4161 11.69 18.2L10.15 10.63C10.1108 10.4378 10.016 10.2614 9.87727 10.1227C9.73858 9.98403 9.56217 9.88919 9.37 9.85L1.8 8.31C1.58347 8.267 1.38725 8.15355 1.24195 7.98735C1.09665 7.82115 1.01042 7.61155 0.996725 7.39121C0.983025 7.17088 1.04262 6.95221 1.16622 6.76929C1.28981 6.58637 1.47046 6.44949 1.68 6.38L17.68 1.05C17.8596 0.975842 18.0569 0.955613 18.2478 0.991786C18.4387 1.02796 18.615 1.11896 18.755 1.25368C18.895 1.3884 18.9927 1.56099 19.0363 1.75036C19.0798 1.93973 19.0672 2.13767 19 2.32L13.67 18.32C13.6004 18.527 13.465 18.7055 13.2844 18.8283C13.1039 18.9511 12.8881 19.0114 12.67 19Z" fill="#9747FF"/>
</svg>
