<svg width="18" height="18" viewBox="0 0 18 18" fill="none" xmlns="http://www.w3.org/2000/svg">
<path d="M5 3H3V5H5V3ZM0 2.5C0 1.83696 0.263392 1.20107 0.732233 0.732233C1.20107 0.263392 1.83696 0 2.5 0H5.5C6.16304 0 6.79893 0.263392 7.26777 0.732233C7.73661 1.20107 8 1.83696 8 2.5V5.5C8 6.16304 7.73661 6.79893 7.26777 7.26777C6.79893 7.73661 6.16304 8 5.5 8H2.5C1.83696 8 1.20107 7.73661 0.732233 7.26777C0.263392 6.79893 0 6.16304 0 5.5V2.5ZM2.5 2C2.36739 2 2.24021 2.05268 2.14645 2.14645C2.05268 2.24021 2 2.36739 2 2.5V5.5C2 5.63261 2.05268 5.75979 2.14645 5.85355C2.24021 5.94732 2.36739 6 2.5 6H5.5C5.63261 6 5.75979 5.94732 5.85355 5.85355C5.94732 5.75979 6 5.63261 6 5.5V2.5C6 2.36739 5.94732 2.24021 5.85355 2.14645C5.75979 2.05268 5.63261 2 5.5 2H2.5ZM3 13H5V15H3V13ZM0 12.5C0 11.837 0.263392 11.2011 0.732233 10.7322C1.20107 10.2634 1.83696 10 2.5 10H5.5C6.16304 10 6.79893 10.2634 7.26777 10.7322C7.73661 11.2011 8 11.837 8 12.5V15.5C8 16.163 7.73661 16.7989 7.26777 17.2678C6.79893 17.7366 6.16304 18 5.5 18H2.5C1.83696 18 1.20107 17.7366 0.732233 17.2678C0.263392 16.7989 0 16.163 0 15.5V12.5ZM2.5 12C2.36739 12 2.24021 12.0527 2.14645 12.1464C2.05268 12.2402 2 12.3674 2 12.5V15.5C2 15.6326 2.05268 15.7598 2.14645 15.8536C2.24021 15.9473 2.36739 16 2.5 16H5.5C5.63261 16 5.75979 15.9473 5.85355 15.8536C5.94732 15.7598 6 15.6326 6 15.5V12.5C6 12.3674 5.94732 12.2402 5.85355 12.1464C5.75979 12.0527 5.63261 12 5.5 12H2.5ZM15 3H13V5H15V3ZM12.5 0C11.837 0 11.2011 0.263392 10.7322 0.732233C10.2634 1.20107 10 1.83696 10 2.5V5.5C10 6.16304 10.2634 6.79893 10.7322 7.26777C11.2011 7.73661 11.837 8 12.5 8H15.5C16.163 8 16.7989 7.73661 17.2678 7.26777C17.7366 6.79893 18 6.16304 18 5.5V2.5C18 1.83696 17.7366 1.20107 17.2678 0.732233C16.7989 0.263392 16.163 0 15.5 0H12.5ZM12 2.5C12 2.36739 12.0527 2.24021 12.1464 2.14645C12.2402 2.05268 12.3674 2 12.5 2H15.5C15.6326 2 15.7598 2.05268 15.8536 2.14645C15.9473 2.24021 16 2.36739 16 2.5V5.5C16 5.63261 15.9473 5.75979 15.8536 5.85355C15.7598 5.94732 15.6326 6 15.5 6H12.5C12.3674 6 12.2402 5.94732 12.1464 5.85355C12.0527 5.75979 12 5.63261 12 5.5V2.5ZM10 10H12.75V12.75H10V10ZM15.25 12.75H12.75V15.25H10V18H12.75V15.25H15.25V18H18V15.25H15.25V12.75ZM15.25 12.75V10H18V12.75H15.25Z" fill="#9747FF"/>
</svg>
