<svg width="32" height="32" viewBox="0 0 32 32" fill="none" xmlns="http://www.w3.org/2000/svg">
<circle cx="16" cy="16" r="16" fill="white"/>
<path d="M20.1446 22.6586C19.8116 22.7143 19.4968 22.4758 19.438 22.1206C19.4351 22.1031 19.4329 22.0855 19.4313 22.0678L19.0561 17.8247C19.045 17.6993 18.9994 17.5801 18.925 17.4822C18.8506 17.3843 18.7507 17.3119 18.6378 17.2742L18.597 17.2606L18.5503 17.2433C18.532 17.2364 18.5127 17.2281 18.4898 17.2188C18.4005 17.1812 18.2844 17.1234 18.1597 17.0454C18.0375 16.967 17.9112 16.8676 17.8006 16.7471C17.6904 16.6266 17.5969 16.4848 17.5343 16.3228C17.4686 16.1613 17.4553 15.9755 17.4216 15.7827C17.3927 15.5889 17.3634 15.3844 17.3377 15.172C17.3236 15.066 17.3123 14.9577 17.3001 14.8481C17.2873 14.7387 17.2776 14.6274 17.2668 14.5154C17.2457 14.2912 17.2294 14.0625 17.2153 13.8334C17.2032 13.6039 17.1927 13.3741 17.1888 13.1467C17.1833 12.9196 17.1841 12.6949 17.1875 12.477C17.1911 12.2591 17.2001 12.0474 17.2112 11.8461C17.2176 11.7454 17.2234 11.6474 17.2323 11.552C17.2406 11.4568 17.2475 11.365 17.2562 11.2764L17.2844 11.0217C17.2935 10.9408 17.3056 10.8634 17.3151 10.791C17.3242 10.7186 17.3359 10.6503 17.3462 10.5873L17.3609 10.4967L17.3763 10.4137C17.3912 10.3317 17.4078 10.2501 17.4262 10.169L17.4473 10.0817L17.5106 9.81986C17.5902 9.49046 17.8979 9.27527 18.21 9.34722C18.4531 9.40325 18.6263 9.61003 18.6668 9.85264L19.6538 15.8154L20.6508 21.8387L20.657 21.8765C20.7175 22.2413 20.4881 22.6012 20.1446 22.6586ZM15.8565 10.6126C15.855 10.5195 15.8554 10.4343 15.8526 10.3586C15.8488 10.2366 15.8449 10.1145 15.841 9.99249C15.8353 9.82946 15.6952 9.69632 15.5283 9.73122C15.4149 9.75492 15.3322 9.85988 15.3233 9.9826L15.323 9.98727L15.3111 10.1523L15.2976 10.3415C15.2927 10.4145 15.2838 10.4968 15.2759 10.5866C15.2675 10.6763 15.2596 10.7734 15.2474 10.8759C15.2355 10.9785 15.2249 11.0866 15.2106 11.1981C15.1958 11.3096 15.1821 11.4249 15.1654 11.5416C15.1478 11.6582 15.132 11.7769 15.1125 11.8949C15.093 12.0129 15.0751 12.1311 15.0536 12.2467L15.023 12.4186L14.9909 12.5857C14.9704 12.6956 14.9476 12.8009 14.9272 12.901C14.9181 12.9432 14.9033 13.0098 14.8888 13.0745C14.8775 13.1253 14.8483 13.1695 14.8074 13.1981C14.7664 13.2268 14.7168 13.2377 14.6685 13.2286C14.6201 13.2195 14.5768 13.1911 14.5475 13.149C14.5183 13.107 14.5052 13.0546 14.5111 13.0026L14.8655 9.85532C14.8816 9.70815 14.7846 9.56731 14.6394 9.54803C14.5064 9.53037 14.3839 9.62918 14.3534 9.76821L13.6744 12.8625C13.6641 12.9089 13.6376 12.9494 13.6003 12.9757C13.5629 13.002 13.5176 13.0121 13.4735 13.004C13.4293 12.9958 13.3898 12.97 13.363 12.9318C13.3362 12.8936 13.324 12.846 13.3291 12.7986C13.3368 12.7275 13.3451 12.6515 13.3506 12.6048C13.3635 12.5033 13.3759 12.396 13.3919 12.2854L13.4154 12.1166L13.4418 11.9439C13.4588 11.8275 13.4798 11.7099 13.4994 11.5919C13.519 11.4739 13.5423 11.3567 13.5632 11.2407C13.585 11.1249 13.6091 11.0116 13.631 10.9014C13.6533 10.7914 13.6781 10.6859 13.6999 10.5853C13.7213 10.4845 13.7451 10.3903 13.7659 10.3029C13.7873 10.2158 13.8053 10.1352 13.8242 10.0648L13.8722 9.88205L13.9141 9.72265L13.9161 9.71499C13.9506 9.58147 13.8864 9.43873 13.7629 9.38577C13.6301 9.32881 13.4791 9.39733 13.4256 9.53883L13.3658 9.69698L13.2972 9.87868C13.2703 9.94876 13.2433 10.029 13.212 10.116C13.1813 10.2031 13.1468 10.2973 13.1141 10.3981C13.081 10.4988 13.0443 10.6046 13.0096 10.7151C12.9753 10.8257 12.9384 10.9396 12.9036 11.0563C12.8696 11.1733 12.833 11.2916 12.8002 11.4111C12.7673 11.5306 12.733 11.6498 12.7029 11.7683L12.657 11.9441L12.6144 12.1165C12.5859 12.2296 12.5613 12.34 12.5368 12.4443C12.5135 12.5491 12.4915 12.6482 12.4724 12.7402C12.4548 12.8241 12.4379 12.9082 12.4218 12.9925C12.4069 13.0676 12.3556 13.5419 12.3724 13.5977C12.3207 14.4013 12.6962 15.1326 13.2963 15.4429L12.0137 21.8503C12.0107 21.8657 12.0081 21.8811 12.006 21.8966C11.9587 22.2576 12.1949 22.5912 12.5338 22.6416C12.8727 22.6921 13.1858 22.4404 13.2332 22.0794L14.0851 15.5912C14.7638 15.5166 15.3632 14.9425 15.5595 14.1405C15.5867 14.092 15.6378 13.8574 15.6467 13.8018C15.6548 13.7467 15.6654 13.6798 15.6756 13.6037C15.6864 13.5275 15.6974 13.4417 15.709 13.3482C15.7206 13.2548 15.7318 13.1536 15.7434 13.0467C15.754 12.9397 15.7663 12.8271 15.7758 12.7104L15.7912 12.5329L15.8045 12.3509C15.8142 12.2286 15.8202 12.1041 15.8277 11.9798C15.8352 11.8556 15.8388 11.7311 15.8445 11.6088C15.8492 11.4864 15.8511 11.3659 15.8544 11.2494C15.8573 11.133 15.8567 11.0202 15.8579 10.9135C15.8595 10.8067 15.8573 10.7057 15.8565 10.6126Z" fill="#9747FF"/>
<circle cx="16" cy="16" r="14" stroke="#9747FF" stroke-width="2"/>
</svg>
