<svg width="12" height="14" viewBox="0 0 12 14" fill="none" xmlns="http://www.w3.org/2000/svg">
<path d="M7.25 8.75C8.31087 8.75 9.32828 8.32857 10.0784 7.57843C10.8286 6.82828 11.25 5.81087 11.25 4.75C11.25 3.68913 10.8286 2.67172 10.0784 1.92157C9.32828 1.17143 8.31087 0.75 7.25 0.75H3.5C3.30109 0.75 3.11032 0.829018 2.96967 0.96967C2.82902 1.11032 2.75 1.30109 2.75 1.5V7.25H1.5C1.30109 7.25 1.11032 7.32902 0.96967 7.46967C0.829018 7.61032 0.75 7.80109 0.75 8C0.75 8.19891 0.829018 8.38968 0.96967 8.53033C1.11032 8.67098 1.30109 8.75 1.5 8.75H2.75V9.75H1.5C1.30109 9.75 1.11032 9.82902 0.96967 9.96967C0.829018 10.1103 0.75 10.3011 0.75 10.5C0.75 10.6989 0.829018 10.8897 0.96967 11.0303C1.11032 11.171 1.30109 11.25 1.5 11.25H2.75V12.5C2.75 12.6989 2.82902 12.8897 2.96967 13.0303C3.11032 13.171 3.30109 13.25 3.5 13.25C3.69891 13.25 3.88968 13.171 4.03033 13.0303C4.17098 12.8897 4.25 12.6989 4.25 12.5V11.25H7C7.19891 11.25 7.38968 11.171 7.53033 11.0303C7.67098 10.8897 7.75 10.6989 7.75 10.5C7.75 10.3011 7.67098 10.1103 7.53033 9.96967C7.38968 9.82902 7.19891 9.75 7 9.75H4.25V8.75H7.25ZM4.25 2.25H7.25C7.91304 2.25 8.54893 2.51339 9.01777 2.98223C9.48661 3.45107 9.75 4.08696 9.75 4.75C9.75 5.41304 9.48661 6.04893 9.01777 6.51777C8.54893 6.98661 7.91304 7.25 7.25 7.25H4.25V2.25Z" fill="#9747FF"/>
</svg>
